
<?xml version="1.0" encoding="utf-8"?>
<!-- Generator: Adobe Illustrator 19.0.0, SVG Export Plug-In . SVG Version: 6.00 Build 0)  -->
<svg xmlns="http://www.w3.org/2000/svg" xmlns:xlink="http://www.w3.org/1999/xlink" version="1.1" id="Layer_1" x="0px" y="0px" viewBox="700.4 -61.3 1421.6 321.6" style="enable-background:new 700.4 -61.3 1421.6 321.6;" xml:space="preserve">
<style type="text/css">
	.st0{fill:#525252;}
	.st1{fill:#BCBEC0;}
	.st2{fill:#ED1C24;}
</style>
<g>
	<g>
		<path class="st0" d="M1741.1,124.2c-4.7-0.8-12.8-3.3-15.8-5c-1.6-0.8-1.9-2.2-1.9-9.2c0-4.6,0.2-8.3,0.4-8.3    c0.2,0,3.6,1.5,7.7,3.3c17.6,8.1,37.5,6.9,48-3c1.5-1.3,3.8-4.9,5.3-8c2.5-4.9,2.8-6.9,3.1-16.9c0.3-8.9,0.2-10.9-0.8-9.3    c-2,3.3-8.6,9.1-13.2,11.3c-10,4.8-25.7,4.6-35.6-0.4c-5.4-2.7-12.9-10.4-15.8-16.2c-5-9.7-6.9-29.4-4.1-43.3    c2.8-14.3,12.3-27,24.4-32.7c6.1-2.8,7.4-3.1,16.9-3.1c12.4,0,18.3,2.2,24.4,8.8l3.9,4.3l0.3-5.6l0.3-5.6l8.6-0.3l8.5-0.3v49    c0,31.2-0.4,51.1-1.1,54.7c-3.5,19-17.4,32.7-36.2,35.7C1761.5,125.3,1747.8,125.3,1741.1,124.2z M1769.7,66.7    c7-2.1,14.5-9.6,16.9-17.1c2-5.9,2.4-28.5,0.7-34.5c-2.4-8.4-12-16.3-21-17.3c-19.1-2-31.4,12.3-31.3,36.5    c0.1,13.1,2.5,19.6,9.6,26.6C1751.7,68.1,1759.2,69.7,1769.7,66.7z"/>
		<path class="st0" d="M1190.8,82.4c-8.9-1.3-15.3-2.7-20.3-4.5l-5.7-2V65.6c0-10.9-0.2-10.6,4.9-7.2c8.9,6,26.7,9.7,38,8.1    c13.8-2,19.1-6.9,19.7-17.8c0.3-6,0.1-6.8-2.7-10.7c-4-5.6-9.1-9-25.5-17.5c-28.3-14.5-35.2-23.1-34.2-42    c0.7-12.1,5.2-19.3,16-25.9c13.4-8.1,37.3-10.1,55.3-4.6l5.1,1.6v9.7c0,5.4-0.3,9.8-0.6,9.8s-2.4-1.1-4.6-2.5    c-8.9-5.2-26.8-7.2-37.1-4.1c-12.5,3.7-18.1,12-15.1,22.1c2.3,7.6,6.4,10.7,28.2,22.1c26,13.5,34.2,23,34.2,40    c0,17.5-9.6,29.1-28,33.9C1212.6,82,1196,83.1,1190.8,82.4z"/>
		<path class="st0" d="M1314.4,82c-25.3-3.5-43.2-19.5-50.5-44.9c-3-10.7-3-31.8-0.1-42c6-20.4,17.2-34.4,35.2-43.5    c13.7-7,38.7-8.6,56.8-3.7c5.4,1.4,10.3,3,11.1,3.6c1.4,1.2,2,20,0.6,19.3c-14.5-7.4-21.1-9-36.1-9.1c-13.7,0-19.5,1.3-27.5,6.2    c-20.6,12.7-29.1,40.8-20.5,68.1c3.6,11.5,10.7,19.9,21,25.3c7.9,4,12.7,5,23.6,5c9.8,0,15.3-0.9,21.9-3.7l3.6-1.6V43.5V26h-14.7    h-14.8l0.3-8.1l0.3-8.1l23.4-0.3l23.3-0.2v31.1v31.2l-3.7,1.7c-8.5,4-13.4,5.7-20,7.1C1338.1,82.3,1322.2,83.1,1314.4,82z"/>
		<path class="st0" d="M1591.9,82c-13.4-2.6-21.7-11.5-24.5-26.5c-0.5-2.8-1-19.9-1-37.9v-32.8h8.8h8.8v31.7    c0,36.1,0.5,39.3,6.7,45.8c6.1,6.4,16.6,7.7,25.4,3.2c4.6-2.5,7.3-5.3,10.3-11c2.3-4.3,2.3-5,2.6-37l0.3-32.7h8.8h8.7v48.1V81    h-8.8h-8.8V74c-0.1-5.8-0.3-6.8-1.2-5.2c-2.1,3.8-9.9,10.2-14.3,11.8C1608,82.4,1597.7,83.2,1591.9,82z"/>
		<path class="st0" d="M1850.4,82c-5-1.1-10.8-3.9-14.2-7.2c-8.7-8.1-10.1-26.8-2.7-37.4c6.1-8.9,16.3-12.9,41-15.9l14-1.7l-0.6-4    c-1.3-7.8-2.8-11.5-6.1-14.3c-3.9-3.4-8-4.3-17.4-3.7c-7.4,0.5-16.6,3.9-23.3,8.6l-2.8,2.1V0.1c0-9.8,0-9.8,12-14.1    c6.2-2.2,8.8-2.6,19.4-2.6c11.8-0.1,12.6,0,18.8,2.9c7.6,3.6,11.9,8.4,14.6,16.7c1.9,5.2,2,8.3,2,41.8V81h-8.3h-8.3v-7.6v-7.7    l-1.9,3.1c-2.7,4.2-11.1,10.8-15.6,12.1C1865.6,82.5,1855.1,83,1850.4,82z M1871.1,67.2c4.7-1.3,11.7-7.7,14.3-13.2    c1.4-2.7,2.3-7.2,2.7-12.9l0.6-8.5l-2.4,0.6c-1.3,0.3-7.5,1.3-13.8,2.2c-6.3,0.9-12.8,2-14.5,2.5c-5.3,1.6-9.6,5.5-10.9,10    C1843.3,62,1855.2,71.6,1871.1,67.2z"/>
		<path class="st0" d="M2063.2,82.4c-10-2-17.5-7.2-21.1-14.7c-3.9-8.2-3.1-22,1.8-29.5c6.3-9.5,16.1-13.5,41.3-16.7l13.5-1.7    l-0.5-5.8c-0.6-7.1-4.2-13.1-9-15.1c-4-1.7-15.1-1.8-20.6-0.3c-5.3,1.5-12.1,4.7-15.8,7.5c-1.7,1.3-3.3,2.3-3.6,2.3    c-0.4,0-0.7-3.8-0.7-8.4v-8.3l6.6-3c15-6.8,33.4-7.6,45-1.9c6.6,3.2,9.9,6.9,13.5,14.5c2.1,4.6,2.2,5.8,2.5,42.3l0.3,37.5h-8.8    h-8.9v-6.4v-6.4l-5.3,5.3c-3.5,3.4-7,5.8-10,6.9C2078.2,82.1,2067.4,83.2,2063.2,82.4z M2083.2,66.7c3.2-1.1,5.8-3,8.7-6.4    c5.3-6.2,6.4-9.4,6.5-19.2l0.1-8.1l-2.7,0.5c-1.6,0.3-8.3,1.3-15.2,2.3c-17.6,2.6-22.4,5.8-23.1,16c-0.5,7.1,1.8,11.4,7.6,14.3    C2070.4,68.7,2076.6,68.9,2083.2,66.7z"/>
		<path class="st0" d="M1080.7,78.4c-0.6-1.6-5.4-14.9-10.7-29.8c-13.5-38-13.7-38.6-14.7-40.7c-0.5-1.1-1.6-4.1-2.5-6.9    c-1-2.7-2.1-5.8-2.6-6.9c-1-2.4-16.6-45.9-16.6-46.3c0-0.2,4.5-0.2,10-0.1l10,0.3l3.1,9.3c4,11.8,10.5,30.5,22.5,65.3    c5.3,15.1,10.1,29.4,10.7,31.6c1.3,4.6,2.6,6.5,2.6,3.8c0-1.8,1.7-6.7,21.6-62.9c5.3-15.1,11.2-31.9,13.1-37.3l3.3-9.8l9.5-0.3    c5.8-0.2,9.4,0.1,9.4,0.7c0,0.6-2.9,8.8-6.5,18.5c-3.6,9.6-7.6,20.3-8.7,23.9c-1.3,3.5-3.4,9.5-4.9,13.3    c-1.4,3.8-4.5,12.2-6.9,18.7c-2.4,6.5-5.5,14.9-6.9,18.7c-1.4,3.8-5.3,14.2-8.5,23.4l-5.9,16.4h-9.7    C1081.8,81,1081.7,81,1080.7,78.4z"/>
		<path class="st0" d="M1460.3,14.3v-66.8h23.9c25.9,0,31.7,0.8,39.3,5.2c6,3.5,12,10.5,13.5,15.8c1.9,6.8,0.9,18.8-2,24.5    c-2.7,5.2-10.4,12.8-15.1,14.7l-3,1.3l5.4,1.8c13.5,4.4,20.7,13.4,22.2,27.2c2.3,22.1-12.3,39-36,42c-4.5,0.5-17.2,1-28.1,1h-19.9    V14.3z M1511.9,62.5c2.7-1.2,6.2-3.3,7.8-4.8c6.4-6,8.2-17,4.4-25.3c-4.4-9.3-14.3-13.2-34-13.2H1478v23.2v23.2l14.5-0.4    C1504.8,64.7,1507.7,64.3,1511.9,62.5z M1507.9,0.4c7-3.5,10.6-9,11.1-16.9c0.5-7.6-1.3-12.3-5.8-15.7c-4.9-3.6-9.8-4.6-23.2-4.6    H1478v20.2V3.7l12.6-0.3C1501.7,3,1503.6,2.7,1507.9,0.4z"/>
		<path class="st0" d="M1676.3,11.3v-69.7h8.8h8.8v69.7V81h-8.8h-8.8V11.3z"/>
		<path class="st0" d="M1932.6,32.9v-48.1h8.8h8.8v8.6V2l2.9-5c3.3-5.9,8.8-10.8,13.7-12.3c1.9-0.6,6.3-0.9,9.8-0.7l6.4,0.3l0.3,9.1    l0.3,9.1l-2.9-1.6c-3.7-1.9-10.9-1.9-15.3,0c-4.6,1.9-8.9,6.7-12.2,13.3l-2.6,5.4l-0.3,30.7l-0.3,30.6h-8.8h-8.7V32.9z"/>
		<path class="st0" d="M1999.4,32.9v-48.1h8.8h8.8v48.1V81h-8.8h-8.8V32.9z"/>
		<path class="st0" d="M2003.7-38.4c-10.4-5.1-6.6-20,5.2-20c3.8,0,4.9,0.5,7.8,3.5c5.3,5.6,3.8,13.3-3.1,16.6    C2009.6-36.4,2007.5-36.4,2003.7-38.4z"/>
	</g>
	<g>
		<circle class="st1" cx="821.7" cy="-28.5" r="29.9"/>
		<circle class="st1" cx="907.2" cy="-28.5" r="29.9"/>
		<circle class="st1" cx="821.4" cy="56.4" r="29.9"/>
		<g id="Red">
			<circle class="st2" cx="992.8" cy="-28.4" r="29.9"/>
			<circle class="st2" cx="736.3" cy="56.9" r="29.9"/>
			<circle class="st2" cx="736.3" cy="142.4" r="29.9"/>
			<circle class="st2" cx="736" cy="227.5" r="29.9"/>
			<circle class="st2" cx="821.7" cy="142.4" r="29.9"/>
			<circle class="st2" cx="907.2" cy="56.9" r="29.9"/>
			<circle class="st2" cx="736.3" cy="-28.4" r="29.9"/>
		</g>
	</g>
</g>
</svg>
